<?xml version="1.0" encoding="UTF-8" standalone="no"?>
<!-- Created with Inkscape (http://www.inkscape.org/) -->

<svg
   width="137.20123mm"
   height="52.609467mm"
   viewBox="0 0 137.20123 52.609467"
   version="1.1"
   id="svg1"
   xml:space="preserve"
   xmlns="http://www.w3.org/2000/svg"
   xmlns:svg="http://www.w3.org/2000/svg"><defs
     id="defs1" /><g
     id="layer1"
     transform="translate(-47.961946,-119.34723)"><path
       d="m 116.55281,171.10947 c 0.39323,-1.08656 0.87672,-1.85778 2.19324,-3.49842 0.66171,-0.82462 1.23402,-1.53144 1.2718,-1.57071 0.0378,-0.0393 0.0213,0.28048 -0.0367,0.71055 -0.12508,0.92805 -0.13131,0.9309 1.34804,-0.61596 1.15002,-1.20251 1.57257,-1.83107 2.08262,-3.09808 0.21826,-0.54214 0.46026,-0.94652 0.5378,-0.8986 0.0842,0.052 0.10895,0.5106 0.0615,1.13786 -0.0443,0.58602 -0.0227,1.05072 0.049,1.05072 0.15923,0 1.15638,-1.24421 1.80629,-2.25384 0.87276,-1.35583 1.54094,-3.17076 1.96961,-5.34985 0.1473,-0.7488 0.35739,-0.39206 0.35739,0.60686 0,0.54976 0.0583,0.99955 0.12946,0.99955 0.17875,0 0.92169,-1.82416 1.36993,-3.36359 0.6346,-2.17954 0.82925,-4.06407 0.73661,-7.13165 -0.0809,-2.68006 -0.2358,-4.17027 -0.54903,-5.28331 -0.15198,-0.54001 -0.16655,-0.5517 -0.26706,-0.21419 -0.0585,0.19633 -0.11272,0.57777 -0.12055,0.84763 -0.0415,1.43136 -0.99301,3.89308 -1.84155,4.76452 -0.5674,0.58272 -1.7306,1.38468 -2.00841,1.38468 -0.0932,0 -0.2333,-0.16775 -0.31125,-0.37277 -0.13588,-0.3574 -0.15486,-0.36308 -0.46054,-0.13795 -0.17535,0.12914 -0.67223,0.40933 -1.10417,0.62264 -0.67841,0.33503 -0.96038,0.38785 -2.07049,0.38785 -1.15313,0 -1.38557,-0.0476 -2.26286,-0.46307 -1.06036,-0.5022 -2.37781,-1.71593 -2.87444,-2.64814 -0.15531,-0.2915 -0.31594,-0.52944 -0.35699,-0.52875 -0.041,5.4e-4 -0.32329,0.3872 -0.62721,0.85891 -1.10245,1.71111 -2.60227,2.65384 -4.47809,2.81477 -1.09822,0.0942 -2.00088,-0.1377 -3.00416,-0.77186 -0.86571,-0.5472 -1.03247,-0.58036 -1.03247,-0.20529 0,0.98 -1.98023,-0.30935 -2.90891,-1.89403 -0.50707,-0.86524 -1.06058,-2.71168 -1.17255,-3.91149 -0.13051,-1.39831 -0.38092,-1.1733 -0.7259,0.65225 -0.33055,1.7492 -0.37462,7.98955 -0.0662,9.38092 0.51572,2.32693 1.88259,5.8331 2.16396,5.55082 0.0684,-0.0686 0.14377,-0.54238 0.16755,-1.05286 l 0.0432,-0.92815 0.24394,0.99955 c 0.72024,2.9512 1.66584,4.78527 3.22985,6.26459 l 0.4336,0.41011 -0.0808,-1.06815 c -0.0943,-1.24697 0.13337,-1.62491 0.39086,-0.64883 0.23366,0.88576 1.00855,2.20383 1.84347,3.1357 0.79264,0.88469 1.83415,1.76532 1.95037,1.6491 0.0403,-0.0403 -0.027,-0.31286 -0.14937,-0.60582 -0.48843,-1.16897 -0.17736,-0.91742 1.63942,1.32573 0.80517,0.99413 1.69932,2.64032 1.90986,3.51617 0.11992,0.49886 0.24025,0.38355 0.58032,-0.55612 z m -4.99472,-24.5687 c 0.98967,-0.26856 2.32868,-0.88526 3.60802,-1.6617 0.49224,-0.29874 0.9681,-0.54317 1.05747,-0.54317 0.0894,0 0.37166,0.15954 0.6273,0.35453 0.64816,0.49437 2.24419,1.27476 3.3381,1.63219 2.9739,0.97169 5.65533,0.54876 7.31338,-1.15349 0.93185,-0.9567 0.92005,-1.24131 -0.0309,-0.74409 -1.38289,0.72309 -2.72605,0.32707 -5.27538,-1.55539 -1.78018,-1.3145 -2.40145,-1.59276 -3.56982,-1.59891 -0.72105,-0.004 -1.03967,0.0661 -1.42792,0.31346 -1.06065,0.67557 -1.08827,0.6807 -1.55448,0.28841 -0.52515,-0.44189 -1.69747,-0.7407 -2.41187,-0.61476 -1.0408,0.18348 -1.44555,0.38992 -2.83619,1.4466 -0.77441,0.58843 -1.87257,1.30174 -2.44036,1.58513 -0.92745,0.46291 -1.11321,0.50691 -1.82837,0.43309 -0.43783,-0.0452 -1.02554,-0.21756 -1.30604,-0.38306 -0.61329,-0.36185 -0.70765,-0.30802 -0.42343,0.24158 0.49639,0.95993 1.53513,1.67606 3.09086,2.13093 0.80775,0.23617 2.8911,0.14845 4.06958,-0.17135 z m -33.56826,-12.1888 c 1.626532,-0.80056 2.229062,-1.94545 2.222932,-4.22391 -0.004,-1.6496 -0.24918,-2.36852 -1.1062,-3.24945 -1.001752,-1.02968 -1.445652,-1.10571 -6.455432,-1.10571 -2.42655,0 -4.57056,-0.0603 -4.76447,-0.13405 -0.70602,-0.26843 -0.95116,-0.70027 -0.95116,-1.67553 0,-0.7914 0.0499,-0.95478 0.41652,-1.3653 l 0.41651,-0.46633 5.64153,-0.0433 5.641522,-0.0433 0.0463,-1.13807 c 0.0255,-0.62595 0.0249,-1.20085 -0.001,-1.27755 -0.03,-0.0878 -2.274712,-0.13947 -6.059292,-0.13947 -5.81422,0 -6.03203,0.01 -6.63079,0.2997 -0.88208,0.42701 -1.70153,1.31966 -1.97938,2.15623 -0.17904,0.53902 -0.22152,1.0744 -0.17711,2.23231 0.05,1.3031 0.11353,1.62975 0.43982,2.26035 0.39708,0.76741 0.73765,1.07204 1.81723,1.62548 0.62384,0.31982 0.77567,0.33102 5.21192,0.3845 2.78932,0.0336 4.72495,0.11509 4.96877,0.20912 0.21967,0.0847 0.49276,0.33456 0.60686,0.55521 0.4284,0.82843 0.14569,2.3355 -0.49895,2.65986 -0.12196,0.0614 -2.88839,0.1437 -6.14762,0.18297 l -5.92589,0.0714 v 1.21374 1.21373 l 0.57117,0.0918 c 0.31414,0.0505 3.14143,0.0826 6.28287,0.0714 l 5.71169,-0.0204 z m 19.645252,0.18911 c 0.0947,-0.0947 0.13977,-0.60136 0.11427,-1.28513 l -0.0421,-1.1288 h -6.78264 -6.78263 l -0.0419,1.12018 c -0.0231,0.6161 0.0198,1.19441 0.0952,1.28513 0.18945,0.22783 13.21223,0.23618 13.43983,0.009 z m 19.484498,0.0493 c 0.0303,-0.0982 0.0939,-3.50377 0.1415,-7.568 l 0.0865,-7.3895 h -1.64531 -1.6453 v 4.92634 c 0,2.70948 -0.0521,4.92633 -0.11579,4.92633 -0.0637,0 -0.39525,-0.30522 -0.73684,-0.67826 -1.42337,-1.55447 -4.64776,-4.94594 -6.71536,-7.06334 l -2.21328,-2.26658 -1.49931,0.042 -1.49933,0.042 v 7.4966 7.4966 h 1.57072 1.57071 l 0.0375,-5.03343 c 0.0207,-2.76839 0.0894,-5.03343 0.15283,-5.03343 0.1198,0 2.67683,2.57786 5.73637,5.78309 4.40829,4.6182 4.09687,4.33503 4.83183,4.39355 1.48136,0.11794 1.88814,0.10243 1.94254,-0.0741 z m -56.35427,-1.28661 0.0413,-1.2509 -6.395539,0.0372 -6.39554,0.0372 -0.0424,1.05758 c -0.0233,0.58167 -0.009,1.14458 0.0318,1.25092 0.0611,0.15935 1.18583,0.1868 6.39667,0.15615 l 6.322469,-0.0372 z m 79.39243,0.0918 0.0412,-1.1591 -0.39947,-0.0799 c -0.21972,-0.0439 -3.50088,-0.0868 -7.29147,-0.0952 -3.7906,-0.008 -7.04258,-0.0726 -7.22663,-0.14257 -0.18406,-0.07 -0.47444,-0.30495 -0.6453,-0.52217 -0.30436,-0.38693 -0.3098,-0.47418 -0.26864,-4.30561 l 0.042,-3.91068 0.53338,-0.48859 0.53337,-0.4886 h 7.26939 7.26938 l 0.0621,-1.17804 c 0.0342,-0.64792 0.0196,-1.2283 -0.0323,-1.28975 -0.052,-0.0614 -3.68755,-0.0916 -8.07908,-0.067 -6.06661,0.034 -8.11714,0.0892 -8.53629,0.22999 -0.75971,0.2552 -1.67273,1.2388 -2.01859,2.17465 -0.26207,0.70911 -0.28559,1.12553 -0.28559,5.05652 0,3.77159 0.0313,4.37767 0.26157,5.06913 0.40041,1.20228 1.25104,1.98083 2.48255,2.27221 0.29706,0.0703 4.07422,0.1179 8.39369,0.10583 l 7.85358,-0.022 z m 7.23966,-6.03898 c 0.0582,-3.9982 0.0625,-7.33954 0.01,-7.4252 -0.06,-0.0971 -0.68446,-0.15574 -1.65854,-0.15574 h -1.56229 v 7.4252 7.42521 h 1.55271 1.55271 z m 11.92474,1.058 v -6.21147 h 2.35607 2.35608 v -1.21078 -1.21078 l -6.24717,-0.0386 c -3.43594,-0.0213 -6.32748,-0.0157 -6.42566,0.0123 -0.12456,0.0356 -0.17848,0.41304 -0.17848,1.24943 v 1.19846 h 2.42747 2.42747 v 6.21147 6.21146 h 1.64211 1.64211 z m 17.99184,3.67297 c 0,-2.78489 -0.03,-2.66892 0.98874,-3.823 0.28082,-0.31812 0.70335,-0.83169 0.93895,-1.14129 0.23561,-0.30958 0.55689,-0.69632 0.71397,-0.85941 0.15707,-0.16309 0.51048,-0.58671 0.78535,-0.94138 0.27488,-0.35467 0.82106,-1.02076 1.21373,-1.48018 1.62689,-1.90341 1.88628,-2.21506 2.53239,-3.04257 l 0.67607,-0.86589 -1.9612,-0.0434 -1.96121,-0.0434 -0.64257,0.66209 c -0.71979,0.74167 -2.19148,2.50142 -3.5347,4.2266 -0.49117,0.63084 -1.02181,1.18066 -1.1792,1.22182 -0.23108,0.0604 -0.61589,-0.32818 -1.99861,-2.0183 -2.39564,-2.9282 -3.32505,-4.00642 -3.51702,-4.08008 -0.23159,-0.0889 -4.03772,-0.14311 -4.12209,-0.0587 -0.0379,0.0379 0.25817,0.41737 0.65805,0.84316 0.39987,0.42579 1.15244,1.28822 1.67236,1.9165 0.51992,0.62829 1.34053,1.59214 1.82358,2.14189 0.48306,0.54976 1.52936,1.79642 2.32513,2.77038 l 1.44684,1.77085 v 2.69141 2.69143 h 1.57072 1.57072 z M 59.8556,128.39928 c 0.18247,-0.07 0.22587,-0.33004 0.22587,-1.35338 v -1.26671 l -5.783579,-0.0388 c -3.18097,-0.0214 -5.84761,-0.0174 -5.92588,0.009 -0.0803,0.0269 -0.14231,0.60027 -0.14231,1.31583 v 1.26824 l 1.46362,0.0463 c 2.88082,0.0911 9.940689,0.10487 10.162279,0.0199 z m 36.607572,-1.23416 -0.0411,-1.32083 h -6.06868 -6.06867 l -0.0411,1.32083 -0.0411,1.32083 h 6.15079 6.15079 z m 1.07357,-5.10483 c 0.037,-0.0393 0.0905,-0.61757 0.11886,-1.28513 l 0.0516,-1.21373 h -6.92543 -6.92542 l -0.0419,1.2015 c -0.0301,0.86356 0.0101,1.23544 0.1428,1.32215 0.19182,0.12532 13.46087,0.10111 13.5794,-0.0248 z m -36.771652,-1.39222 0.0411,-1.32083 h -6.359609 -6.35962 v 1.35801 1.35801 l 6.31856,-0.0372 6.318559,-0.0372 z"
       style="fill:#c7c9c2;fill-opacity:1;stroke-width:0.539688"
       id="path1-6" /></g></svg>
