<?xml version="1.0" encoding="UTF-8" standalone="no"?>
<!-- Created with Inkscape (http://www.inkscape.org/) -->

<svg
   width="28.472921mm"
   height="30.727848mm"
   viewBox="0 0 28.472921 30.727848"
   version="1.1"
   id="svg1"
   xml:space="preserve"
   xmlns="http://www.w3.org/2000/svg"
   xmlns:svg="http://www.w3.org/2000/svg"><defs
     id="defs1" /><g
     id="layer1"
     transform="translate(-123.11814,-63.488827)"><path
       d="m 137.69267,93.369445 c 0.39323,-1.08656 0.87672,-1.85778 2.19324,-3.49842 0.66171,-0.82462 1.23402,-1.53144 1.2718,-1.57071 0.0378,-0.0393 0.0213,0.28048 -0.0367,0.71055 -0.12508,0.92805 -0.13131,0.9309 1.34804,-0.61596 1.15002,-1.20251 1.57257,-1.83107 2.08262,-3.09808 0.21826,-0.54214 0.46026,-0.94652 0.5378,-0.8986 0.0842,0.052 0.10895,0.5106 0.0615,1.13786 -0.0443,0.58602 -0.0227,1.05072 0.049,1.05072 0.15923,0 1.15638,-1.24421 1.80629,-2.25384 0.87276,-1.35583 1.54094,-3.17076 1.96961,-5.34985 0.1473,-0.7488 0.35739,-0.39206 0.35739,0.60686 0,0.54976 0.0583,0.99955 0.12946,0.99955 0.17875,0 0.92169,-1.82416 1.36993,-3.36359 0.6346,-2.17954 0.82925,-4.06407 0.73661,-7.13165 -0.0809,-2.68006 -0.2358,-4.17027 -0.54903,-5.28331 -0.15198,-0.54001 -0.16655,-0.5517 -0.26706,-0.21419 -0.0585,0.19633 -0.11272,0.57777 -0.12055,0.84763 -0.0415,1.43136 -0.99301,3.89308 -1.84155,4.76452 -0.5674,0.58272 -1.7306,1.38468 -2.00841,1.38468 -0.0932,0 -0.2333,-0.16775 -0.31125,-0.37277 -0.13588,-0.3574 -0.15486,-0.36308 -0.46054,-0.13795 -0.17535,0.12914 -0.67223,0.40933 -1.10417,0.62264 -0.67841,0.33503 -0.96038,0.38785 -2.07049,0.38785 -1.15313,0 -1.38557,-0.0476 -2.26286,-0.46307 -1.06036,-0.5022 -2.37781,-1.71593 -2.87444,-2.64814 -0.15531,-0.2915 -0.31594,-0.52944 -0.35699,-0.52875 -0.041,5.4e-4 -0.32329,0.3872 -0.62721,0.85891 -1.10245,1.71111 -2.60227,2.65384 -4.47809,2.81477 -1.09822,0.0942 -2.00088,-0.1377 -3.00416,-0.77186 -0.86571,-0.5472 -1.03247,-0.58036 -1.03247,-0.20529 0,0.98 -1.98023,-0.30935 -2.90891,-1.89403 -0.50707,-0.86524 -1.06058,-2.71168 -1.17255,-3.91149 -0.1305,-1.39831 -0.38091,-1.1733 -0.72589,0.65225 -0.33055,1.7492 -0.37462,7.98955 -0.0662,9.38092 0.51572,2.32693 1.88258,5.8331 2.16395,5.55082 0.0684,-0.0686 0.14377,-0.54238 0.16755,-1.05286 l 0.0432,-0.92815 0.24394,0.99955 c 0.72024,2.9512 1.66584,4.78527 3.22985,6.26459 l 0.4336,0.41011 -0.0808,-1.06815 c -0.0943,-1.24697 0.13337,-1.62491 0.39086,-0.64883 0.23366,0.88576 1.00855,2.20383 1.84347,3.1357 0.79264,0.88469 1.83415,1.76532 1.95037,1.6491 0.0403,-0.0403 -0.027,-0.31286 -0.14937,-0.60582 -0.48843,-1.16897 -0.17736,-0.91742 1.63942,1.32573 0.80517,0.99413 1.69932,2.64032 1.90986,3.51617 0.11992,0.49886 0.24025,0.38355 0.58032,-0.55612 z m -4.99472,-24.5687 c 0.98967,-0.26856 2.32868,-0.88526 3.60802,-1.6617 0.49224,-0.29874 0.9681,-0.54317 1.05747,-0.54317 0.0894,0 0.37166,0.15954 0.6273,0.35453 0.64816,0.49437 2.24419,1.27476 3.3381,1.63219 2.9739,0.97169 5.65533,0.54876 7.31338,-1.15349 0.93185,-0.9567 0.92005,-1.24131 -0.0309,-0.74409 -1.38289,0.72309 -2.72605,0.32707 -5.27538,-1.55539 -1.78018,-1.3145 -2.40145,-1.59276 -3.56982,-1.59891 -0.72105,-0.004 -1.03967,0.0661 -1.42792,0.31346 -1.06065,0.67557 -1.08827,0.6807 -1.55448,0.28841 -0.52515,-0.44189 -1.69747,-0.7407 -2.41187,-0.61476 -1.0408,0.18348 -1.44555,0.38992 -2.83619,1.4466 -0.77441,0.58843 -1.87257,1.30174 -2.44036,1.58513 -0.92745,0.46291 -1.11321,0.50691 -1.82837,0.43309 -0.43783,-0.0452 -1.02554,-0.21756 -1.30604,-0.38306 -0.61329,-0.36185 -0.70765,-0.30802 -0.42343,0.24158 0.49639,0.95993 1.53513,1.67606 3.09086,2.13093 0.80775,0.23617 2.8911,0.14845 4.06958,-0.17135 z"
       style="fill:#c7c9c2;fill-opacity:1;stroke-width:0.539688"
       id="path1" /></g></svg>
